<svg version="1.1" id="Layer_1" xmlns="http://www.w3.org/2000/svg" xmlns:xlink="http://www.w3.org/1999/xlink" x="0px" y="0px"
	 width="100%" viewBox="0 0 832 448" enable-background="new 0 0 832 448" xml:space="preserve">
<path fill="#000000" opacity="1.000000" stroke="none" 
	d="
M628.197937,164.214661 
	C594.998779,194.442245 559.492126,221.249252 524.160034,248.272293 
	C524.027710,248.373520 523.902405,248.488129 523.758728,248.569794 
	C514.943115,253.579193 513.085938,260.861877 515.028748,270.592224 
	C517.918579,285.065735 520.704468,299.580780 522.767395,314.229340 
	C523.954468,322.658020 521.586731,329.140472 515.758484,334.974854 
	C506.910614,343.831879 497.409943,351.943207 487.790894,359.914093 
	C468.031219,376.288025 447.402527,391.554016 427.158508,407.310638 
	C422.710083,410.773041 419.759644,411.052856 415.181427,407.512299 
	C385.930389,384.890686 356.184387,362.935303 328.966003,337.750153 
	C319.660553,329.139862 317.613983,319.707886 319.914734,308.113770 
	C322.469330,295.240540 324.423370,282.245270 327.121063,269.404419 
	C328.889038,260.989105 326.883911,254.939819 319.768982,249.572021 
	C290.376007,227.396774 260.955231,205.234970 233.009384,181.218979 
	C204.265503,156.517197 177.125702,130.217697 153.962738,100.097771 
	C141.953079,84.481018 131.259308,67.997498 123.679993,49.685242 
	C122.852959,47.687046 122.140526,45.639774 121.432602,43.595303 
	C121.291023,43.186420 121.412163,42.686573 121.412163,42.275570 
	C122.830536,41.674816 123.361786,42.719189 123.931953,43.441479 
	C147.440140,73.222130 176.742752,96.414413 207.934692,117.484192 
	C245.731598,143.015564 286.268341,163.618652 326.973816,183.936417 
	C341.873108,191.373260 356.958252,198.450943 371.317963,206.945175 
	C382.601868,213.619995 383.229340,214.269333 381.259338,227.153275 
	C379.251129,240.286774 375.551331,253.120956 373.959198,266.337708 
	C373.303497,271.781006 372.687103,277.241669 372.389618,282.712738 
	C371.870636,292.257904 375.750488,299.658997 383.419342,305.438110 
	C394.033478,313.436737 405.938263,318.991577 417.873230,324.547485 
	C419.780640,325.435425 421.598541,325.580902 423.610718,324.669952 
	C435.605957,319.239410 447.367706,313.520905 458.152344,305.748383 
	C468.103546,298.576538 470.406921,289.104340 469.430634,277.744995 
	C467.901855,259.957764 463.447754,242.700409 460.399323,225.190048 
	C458.724670,215.570847 459.535400,213.858582 468.131256,208.476578 
	C478.174591,202.188309 488.800812,196.985382 499.382446,191.697311 
	C534.997314,173.899139 570.819336,156.482162 604.964783,135.914474 
	C639.310974,115.225822 672.054932,92.380310 700.337891,63.679382 
	C706.419983,57.507404 712.109192,50.972027 717.405701,44.100662 
	C718.163086,43.118130 718.721375,41.667923 720.791687,41.926350 
	C720.886292,45.879105 718.669312,49.110867 717.197144,52.451962 
	C707.226868,75.079933 692.791443,94.818375 677.085510,113.704697 
	C662.138245,131.678864 645.339539,147.867355 628.197937,164.214661 
z"/>
</svg>